<svg id="9ed38afa-2c56-44a3-b180-b9dd2a73bdd6" data-name="Layer 1" xmlns="http://www.w3.org/2000/svg" viewBox="0 0 475.37 716.49"><defs><style>.\31 c1b49fe-0435-4a93-87ec-fe3930f76a91,.a5f64637-49fc-4d5e-bec3-c16fc924530f{fill:#1b1e53;}.\30 37261ae-39ce-4707-94a5-373cd65b70c8,.\30 3ee5f36-7b5c-4078-89b6-9faa86a86168,.\31 49750e1-f008-4987-942e-48c8beb4a5d4,.\35 bfd9667-092e-4e8e-95f3-fdad7c83d352,.\36 0c5922b-775b-48f2-9f6f-c3d9a10c8a66,.\36 4bd4bdd-70cc-446c-a2c6-d6c0c68d4d15,.\38 384a3dc-c0e8-459c-b719-0b3a1b28d601,.\39 a9892a9-b99d-427e-a3b7-125fb53c7027,.\39 c0af4e9-3d4d-4511-b56a-47f003f9bf86,.a5f64637-49fc-4d5e-bec3-c16fc924530f,.b52b92fb-2d2a-4a0e-8f68-d798ce7c0c4d,.c6f347e1-cba9-4642-a43f-a16652076341,.df8c076b-4970-4819-9f43-2fe5fcab0ae2,.e817b7ac-dd6d-4cde-b72e-26899324ab19,.ee017647-2469-4b8b-a695-99c301917650{fill-rule:evenodd;}.df8c076b-4970-4819-9f43-2fe5fcab0ae2{fill:#363b7d;}.\36 4bd4bdd-70cc-446c-a2c6-d6c0c68d4d15{fill:#386eb8;}.\30 37261ae-39ce-4707-94a5-373cd65b70c8{fill:#332b5c;}.\38 384a3dc-c0e8-459c-b719-0b3a1b28d601{fill:#fe4823;}.\31 49750e1-f008-4987-942e-48c8beb4a5d4{fill:#881301;}.ee017647-2469-4b8b-a695-99c301917650{fill:#f1a293;}.\30 3ee5f36-7b5c-4078-89b6-9faa86a86168{fill:#5788b0;}.b52b92fb-2d2a-4a0e-8f68-d798ce7c0c4d{fill:#72c4d9;}.e817b7ac-dd6d-4cde-b72e-26899324ab19{fill:#f80;}.c6f347e1-cba9-4642-a43f-a16652076341{fill:#9de4f6;}.\36 0c5922b-775b-48f2-9f6f-c3d9a10c8a66{fill:#ffad00;}.\39 a9892a9-b99d-427e-a3b7-125fb53c7027{fill:#ffd200;}.\39 c0af4e9-3d4d-4511-b56a-47f003f9bf86{fill:#57ade6;}.\32 c3da713-a9f8-4b1b-bd4a-f8b5502b82af{fill:#fff;}</style></defs><title>mega-wapuu</title><path class="a5f64637-49fc-4d5e-bec3-c16fc924530f" d="M381.51,724.88c-5.15,17.79-20.39,28.17-44,36.61-47.55,17-117.87,21.28-168.12,14.87-18.08-2.32-49.9-8.17-63.21-20.82-11.23-10.67-11-25.09-9.37-39.21,7.21-60.53,59.38-128.92,111.33-170.6C220.28,536,233,528,245.19,518.18c-50.13-4-94.58-23-131.31-59.44-17.39-15.33-27.55-37.29-31.52-59.86-3.26-18.56-2.78-41.35,5-58.81,11.38-25.63,42.53-32.1,58.16-6.66,6,9.81,7.94,22.45,8.47,33.77l0,.39V368a69.4,69.4,0,0,1-2.63,17.6c-1.05,3.87-2.42,7.71-3.35,11.6a16.42,16.42,0,0,0-.43,3.2c-.67,19.76,29.76,43.93,45.6,51.77,28,13.9,63,18.09,94.26,18.77a31.46,31.46,0,0,1,.43-7.25l1.92-10.91a66.92,66.92,0,0,0-4.88-16.94c-2.06-4.47-1.39-3.1-5.17-6.56a81.77,81.77,0,0,1-11.16-12.71,23.12,23.12,0,0,0-3.3-3.88c-13.16-12.32-27.74-25.16-40.9-37.49L220.49,373a48.08,48.08,0,0,1-9.55-3.2c-11.14-5.12-22.72-13.13-32.54-20.45q-5.73-4.26-11.23-8.89c-5.65-3.35-11.26-6.83-15.59-11.07a261.83,261.83,0,0,1-22.18-24.72l-17.17-4.52q-3.53-.93-7-2.1c-26.43-9-48.76-29.17-44.85-59.38.46-3.56,1.11-7.23,2.88-9.9,2-3.09,4.64-3.79,8.22-3.72,4.23.08,8.48.09,12.74.07l.06-.09a129.83,129.83,0,0,1-2-34.28c2.39-36.15,17.85-73.87,44.37-99,18.06-17.1,38.78-27.85,63.94-29,26.68-1.23,56.38,9.13,71.85,31.64a48.24,48.24,0,0,1,2.77,4.62,123,123,0,0,1,34-18.78c20.48-7,41.82-9.09,63.11-4.7,10.3,2.13,18.9,6.36,28.24,11,11,5.53,22.07,11.94,32.52,18.49,6.2,3.89,13.18,8.44,18.6,13.38a19,19,0,0,1,5.78,10.13l2.18,9.59a47.25,47.25,0,0,1,16.63,20.37c1.47,3.23,2.73,6.55,3.89,9.9l3.64,9a116,116,0,0,1,10,26,161.26,161.26,0,0,1,2.64,68L531,298.73a9.05,9.05,0,0,1,2.08,13.68c-14,16-37.56,16.41-64.24,11.69C433.41,370,398.52,381.52,348,379.55c19.39,14.93,17,37.57,35.3,59.38a29,29,0,0,0,5.37,3c10.46-2.82,17.44-8.75,25.22-13.73,0-4.42-.77-9.61-.51-14a93.81,93.81,0,0,1,2.81-19.08c2.55-9.18,7.58-18,17.05-21.29,6.59-2.31,16.47-2.08,23,.49a17.09,17.09,0,0,1,5.26,3.19l1.06.91a55,55,0,0,1,17.94-3A40.12,40.12,0,0,1,494.93,378c12.64,4.79,26.63,18.34,31.23,31.11,2.59,7.19,3,15.2.27,22.4,7.6,9.77,9.51,22.2,8,34.84-3,24.5-17,53.59-29.08,76.21,17.37,22.53,25.76,55.77,19.71,83.16a19.59,19.59,0,0,1-13.67,14.72c-14.35,4.31-31.61,3.1-46.18.48a212.86,212.86,0,0,1-94.66-43C350.81,582.14,333.92,562.15,337,543c-7.12,20.75-3.29,65.89-.5,80.1,25.26,20.59,55.05,67.26,45.05,101.74" transform="translate(-59.95 -62.7)"/><path class="df8c076b-4970-4819-9f43-2fe5fcab0ae2" d="M169.45,643c17.83-12.83,36.06-23.31,54.89-30.13,32.63-11.82,61-12.57,91.36,5.84,28.67,17.37,49.77,47.57,55.33,76.4,6.37,33.09-6.51,45.26-37.19,56.23-42.28,15.11-110.68,21-163.09,14.31-15.07-1.92-46.1-7.44-57.12-17.92-8.24-7.83-7.31-19.71-6.07-30.07,9.68-81.27,110.34-186.24,176.67-200.94,15.39-3.41,36.58-3.47,41.37,15.3,4.73,18.54-6.13,50.18.09,89-52.45-36.75-111.64-14-156.24,22" transform="translate(-59.95 -62.7)"/><path class="64bd4bdd-70cc-446c-a2c6-d6c0c68d4d15" d="M198.49,622.92l-.65.37c-.57.33-1.14.66-1.7,1l-.59.35-1.74,1.06-.53.32-1.78,1.11-.48.3-1.81,1.16-.43.28-1.86,1.23-.33.22-1.92,1.3-.29.19-1.95,1.36-.23.16-2,1.41-.18.14-2,1.46-.15.11-2,1.51-.11.08-2.05,1.56-.06.06-2.06,1.6-.06,0L169.45,643m0,0c17.83-12.83,36.06-23.31,54.89-30.13l1.51-.54h0l1.49-.52h0l1.46-.5.06,0,1.47-.48h0l1.48-.47h0l1.47-.45h.05l1.46-.44h0l1.44-.42.08,0,1.42-.39h.05l1.42-.38.05,0,1.43-.36h0l1.43-.34h0l1.43-.33h0l1.43-.31c20.12,23.27,34.54,53.79,36.63,100C181.78,708,116.07,728.36,115,748.86c-.47-.38-.93-.78-1.35-1.18-8.24-7.83-7.31-19.71-6.07-30.07,9.68-81.27,110.34-186.24,176.67-200.94,7.29-1.62,15.87-2.48,23.4-.95-24.92,26.62-48.81,61.87-62.38,88.84h0l-1.26.26-.7.15-1.83.41-.61.15c-.64.15-1.29.31-1.93.48l-.39.1c-.71.18-1.41.37-2.12.57l-.53.14-2,.57-.62.19-1.88.58-.7.23-1.78.58-.77.26-1.71.61-.75.26-1.71.64-.86.32-1.59.62-.94.38-1.49.61-1.05.44-1.38.59-1.1.49-1.31.59-1.21.55-1.18.56-1.26.59-1.12.55-1.33.66-1,.53-1.44.74-.91.47-1.48.79-.85.46-1.59.88-.72.41Z" transform="translate(-59.95 -62.7)"/><path class="037261ae-39ce-4707-94a5-373cd65b70c8" d="M231.55,736.45c27.39-1.31,49.6,2.21,49.6,7.86s-22.21,11.3-49.6,12.6-49.61-2.22-49.61-7.87,22.21-11.29,49.61-12.59" transform="translate(-59.95 -62.7)"/><path class="1c1b49fe-0435-4a93-87ec-fe3930f76a91" d="M242.75,736.76c-3.61,0-7.35.09-11.18.27-13.65.65-26,2.38-35,4.65-8.7,2.21-14.08,4.84-14.08,7.36v.08c.1,2.09,4.06,3.92,10.62,5.27,6.8,1.4,16.3,2.2,27.19,2.2,3.61,0,7.36-.08,11.18-.27,13.65-.65,26-2.38,35-4.65,8.7-2.21,14.08-4.83,14.08-7.36v-.07c-.1-2.09-4.06-3.92-10.62-5.27-6.8-1.4-16.3-2.21-27.19-2.21m-11.23-.9c3.88-.19,7.65-.28,11.23-.28,11,0,20.54.82,27.42,2.24,7.13,1.46,11.44,3.66,11.57,6.36v.13c0,3.14-5.72,6.15-15,8.5-9,2.29-21.45,4-35.2,4.69-3.88.18-7.64.27-11.23.27-11,0-20.54-.81-27.42-2.23-7.12-1.47-11.44-3.66-11.57-6.37V749c0-3.13,5.72-6.15,15-8.5C205.33,738.25,217.78,736.51,231.52,735.86Z" transform="translate(-59.95 -62.7)"/><path class="8384a3dc-c0e8-459c-b719-0b3a1b28d601" d="M231.55,736.45a189.89,189.89,0,0,1,32.09.9c-6.22,3.61-18.43,6.57-32.48,7.47-15.06,1-28-.71-33.73-3.94a188.17,188.17,0,0,1,34.12-4.43" transform="translate(-59.95 -62.7)"/><path class="149750e1-f008-4987-942e-48c8beb4a5d4" d="M231.55,736.45a207.36,207.36,0,0,1,25.82.26c-6,2.49-14.66,4.4-24.29,5.09-11.45.83-21.53-.28-27.41-2.62a212.38,212.38,0,0,1,25.88-2.73" transform="translate(-59.95 -62.7)"/><path class="1c1b49fe-0435-4a93-87ec-fe3930f76a91" d="M248.62,736.84c-5.31-.15-11.05-.09-17.05.19-6.47.31-12.65.86-18.3,1.6-5.2.67-10,1.5-14.12,2.44a43.7,43.7,0,0,0,12,2.8,112.92,112.92,0,0,0,20,.36,118.43,118.43,0,0,0,18.79-2.64,57.33,57.33,0,0,0,11.78-3.88c-3.93-.44-8.33-.73-13.08-.87m-17.1-1c6-.29,11.79-.34,17.13-.19,5.55.15,10.64.53,15.06,1.09l1.73.22-1.5.88a52.13,52.13,0,0,1-13.76,4.88,120.48,120.48,0,0,1-19,2.67A114.16,114.16,0,0,1,211,745c-6-.71-10.89-2-13.86-3.65l-1.29-.73,1.44-.36a151.69,151.69,0,0,1,15.83-2.84C218.81,736.72,225,736.17,231.52,735.86Z" transform="translate(-59.95 -62.7)"/><path class="ee017647-2469-4b8b-a695-99c301917650" d="M236.44,739.31a2.11,2.11,0,1,1-2.11,2.11,2.1,2.1,0,0,1,2.11-2.11" transform="translate(-59.95 -62.7)"/><path class="03ee5f36-7b5c-4078-89b6-9faa86a86168" d="M258.21,522.84c45.12-19.6,71-9.42,71.4,19q9.4-14.61,18.83-29.22a13.37,13.37,0,0,0,.87-1.56,12,12,0,0,0,1.05-6.74c-1-8.38-3.84-15.93-11.85-20.59a30.67,30.67,0,0,0-28.54-1c-12.47,6.12-42.46,30.63-51.76,40.16" transform="translate(-59.95 -62.7)"/><path class="b52b92fb-2d2a-4a0e-8f68-d798ce7c0c4d" d="M258.21,522.84c21.73-9.43,39-12,51.09-8.89,10.95-11.5,22.07-21.28,32.56-27.89a23.48,23.48,0,0,0-3.35-2.36,30.67,30.67,0,0,0-28.54-1c-12.47,6.12-42.46,30.63-51.76,40.16" transform="translate(-59.95 -62.7)"/><path class="df8c076b-4970-4819-9f43-2fe5fcab0ae2" d="M301.7,485c-7-6-9.14-16.86-5.41-25.28,3.15-7.11,10-13.46,18.87-18.09,20.08-10.46,56.44-10.42,70.88,7.78-3.67,5.67-5.16,15.16-5.73,21a94.51,94.51,0,0,0-.41,12.81,44.71,44.71,0,0,0,1.31,10l.26.89a60.09,60.09,0,0,1-29.35,15.52,14.5,14.5,0,0,0,.39-5.62c-1.11-9.35-4.46-17.28-12.92-22.2a32.87,32.87,0,0,0-30.57-1.1,64,64,0,0,0-5.58,3.17L301.7,485" transform="translate(-59.95 -62.7)"/><path class="64bd4bdd-70cc-446c-a2c6-d6c0c68d4d15" d="M301.7,485c-7-6-9.14-16.86-5.41-25.28,3.15-7.11,10-13.46,18.87-18.09,13.54-7.05,34.48-9.33,51.11-4.49,24.11,25.46,8,50.91-22.53,47.66h0a25.18,25.18,0,0,0-4.15-3,32.87,32.87,0,0,0-30.57-1.1,64,64,0,0,0-5.58,3.17L301.7,485" transform="translate(-59.95 -62.7)"/><path class="df8c076b-4970-4819-9f43-2fe5fcab0ae2" d="M433.27,468.49c-40.75,25.84-74.41,51.56-86.91,76.93A12.76,12.76,0,0,0,345.9,556c18.87,48.52,119.45,89.37,163,76.28a11,11,0,0,0,7.78-8.39c5.64-25.5-2.67-59-21.6-80.28,16.18-30,28.31-57.31,30.83-78.26,1.86-15.41-2.37-26-10.29-32.83-13.05,1.9-29.76,8.51-48.39,17.73-10.8,5.34-22.23,11.55-34,18.23" transform="translate(-59.95 -62.7)"/><path class="64bd4bdd-70cc-446c-a2c6-d6c0c68d4d15" d="M521.87,440a29.48,29.48,0,0,0-6.23-7.49c-13.05,1.9-29.76,8.51-48.39,17.73l-2.52,1.25h0c-33.77,22.15-72.67,59.67-89.25,89.55-4,7.23-6.54,12.94-7,18.32-.66,7.1,2.21,13.64,9.89,22.41,23.57,26.88,80.28,50.1,89.57,39.48,5.11-5.84.73-25.38-1.93-32.26-4.75-12.33-13.65-24.33-25.61-36.07,36-27.51,64.24-63.91,81.51-112.92" transform="translate(-59.95 -62.7)"/><path class="03ee5f36-7b5c-4078-89b6-9faa86a86168" d="M474.33,421.68c-21.21.58-47.07,7.81-77.91,22.2-2.93,1.37-5.4,2.48-7.31,4.32-7.65,7.39-9.13,34.8-6.34,44.61,17.84-6,33-16.07,49.24-25.3,12-6.8,23.61-13.14,34.59-18.57,18.14-9,34.48-15.49,47.5-17.66-9.72-7.43-24.21-10-39.77-9.6" transform="translate(-59.95 -62.7)"/><path class="b52b92fb-2d2a-4a0e-8f68-d798ce7c0c4d" d="M474.33,421.68c-21.21.58-47.07,7.81-77.91,22.2l-1.47.69a82.65,82.65,0,0,0-3.87,21.23c26.5-10.35,52.72-19.05,77.26-17.72,17.44-8.53,33.16-14.7,45.76-16.8-9.72-7.43-24.21-10-39.77-9.6" transform="translate(-59.95 -62.7)"/><path class="e817b7ac-dd6d-4cde-b72e-26899324ab19" d="M265.9,505.4c-57.89,0-105.27-19.25-142.73-56.6C92.39,422,88.65,370.61,99.75,345.59c7.26-16.36,24.67-20.49,34.15-5.06q5.61,9.14,6.46,27.28c-.11,10.62-3.76,18.46-5.6,26.18C128,422.2,165,453.36,187.11,464.32c26.93,13.34,62,19.69,103.83,20.24l1.51,0c-4.8,3.41-9.5,7-14.12,10.64q-6.3,5-12.43,10.18" transform="translate(-59.95 -62.7)"/><path class="df8c076b-4970-4819-9f43-2fe5fcab0ae2" d="M459.81,405.24c.42-5,.51-10.11.56-14.85l0-1.8,1.1-.54a44.3,44.3,0,0,1,19-4.09A31.58,31.58,0,0,1,491.9,386c10.28,3.91,22.47,15.61,26.22,26,2,5.42,2.38,11.55.13,16.94,0,.13-.11.25-.16.37-17.26-12.13-44.25-26.58-58.28-24.11Zm-3.5,15.14a21.41,21.41,0,0,0,2.46-7.13c.32-1.71.57-3.48.78-5.28h0c11-4.1,30.7,5,49.16,16.41-10.51-5-23.28-6.14-34.47-5.84A127.22,127.22,0,0,0,456.31,420.38Zm-34.72,9.56c-.09-4.71,0-10.34.32-15.26a85.05,85.05,0,0,1,2.52-17.31c1.74-6.3,5-13.21,11.63-15.52,4.64-1.62,12.42-1.44,17,.37a7.3,7.3,0,0,1,4.51,4.29c.84,2.17,1.06,5.25.95,9.56-.13,5.27-.62,17.44-2.82,22a14.64,14.64,0,0,1-1.67,2.69c-4.23.79-8.46,1.76-12.68,2.88-8.9-.77-13.37-7.61-14.36-19.22.15,11.38,4.21,18.2,12,19.85C433.14,425.94,427.31,427.85,421.59,429.94Z" transform="translate(-59.95 -62.7)"/><path class="64bd4bdd-70cc-446c-a2c6-d6c0c68d4d15" d="M488.32,413.27a29.59,29.59,0,0,1-2.24,5.57h0a110,110,0,0,0-11.83-.3,127.22,127.22,0,0,0-17.93,1.84,21.41,21.41,0,0,0,2.46-7.13c.32-1.71.57-3.48.78-5.28h0c6.95-2.59,17.38.1,28.77,5.3M481.06,384l5.22.49h0c5.21,3.19,5.11,17.58,2.34,27.77-11-5.05-21.6-8.25-28.81-7h0c.42-5,.51-10.11.56-14.85l0-1.8,1.1-.54a44.3,44.3,0,0,1,19-4.09Z" transform="translate(-59.95 -62.7)"/><path class="64bd4bdd-70cc-446c-a2c6-d6c0c68d4d15" d="M439.22,381.09c4.5-.72,10.18-.31,13.83,1.13a7.3,7.3,0,0,1,4.51,4.29c.84,2.17,1.06,5.25.95,9.56-.06,2.37-.16,4.65-.35,7a40.55,40.55,0,0,1-.62,4.84c-1.3,6.68-5.47,9-12.07,9.23-10.32.42-14.93-6.18-15.44-15.73a64.6,64.6,0,0,1,.51-12.07c.57-3.52,1.53-5.36,4.15-6.76a13.24,13.24,0,0,1,4.53-1.51" transform="translate(-59.95 -62.7)"/><path class="df8c076b-4970-4819-9f43-2fe5fcab0ae2" d="M183.5,342.54c11.12,8.29,22.55,15.65,31,19.53,13.58,6.24,30.6,4.24,43.15-3.79,13.69-8.77,17.82-22.22,15.39-37.65-4.08-26-13.71-54.73-19.6-81A127,127,0,0,1,251,226.1c-23.56,13.24-48.14,18.66-71.21,15.69-13.55,13-29.23,21.18-47.55,18.74,17.39.11,33-7.66,47.21-21.64,22.63,3,46.73-2.64,71.63-16h-.44A25.93,25.93,0,0,1,240.14,221c-8.84-3.66-14.78-13.15-16.47-22.48h0L210,210.82c-11.11,15.48-22.86,21-36.23,28.22-4.45,2.41-7.32,4.06-12.43,5.2a30.57,30.57,0,0,1-16.66-.77c-9.53-3.22-14.8-9.17-19.17-16.05-4.26-6.69-6.46-13.65-13.35-21,9.33,5.33,18.46,11.52,27.55,17.89l-15.48-5.82c8.41,17.22,20.6,24.46,32.87,23.31a29.41,29.41,0,0,0,16.06-6.41A24.38,24.38,0,0,0,182,214.87c-.65-12.74-11.45-26.1-34.89-36.28,29.68,9.74,45.49,31.46,34.51,51.26,42.53-17.54,40.35-70.75-5.11-87,28.66,7.53,45.82,32.2,35.93,61.77a113.88,113.88,0,0,0,10.77-10.3,27,27,0,0,1,2.3-12c2.52-5.71,7-11.82,12.35-17.07h0c4.66-32.82-14.55-49-41.69-59.77,30,8.41,49.59,29.23,45.2,56.54h0a50.63,50.63,0,0,1,12.86-8.29c.45-.19.89-.36,1.34-.53,7.67-13.52,8.56-31.17,2.1-45.28-10.5-22.95-38.73-35.53-66.56-34.25-22.54,1-40.85,10.77-57,26-24.56,23.26-38.8,58.47-41,91.83-1.65,24.9,2.75,58.94,29.36,69.28a31.46,31.46,0,0,1-9.83-2.26c1.15,2.24,2.72,5.26,4.5,8.45a245.43,245.43,0,0,0,66.35,75.57" transform="translate(-59.95 -62.7)"/><path class="64bd4bdd-70cc-446c-a2c6-d6c0c68d4d15" d="M268.8,347.2c4.65-7.56,5.8-16.66,4.24-26.57-4.08-26-13.71-54.73-19.6-81-.92-4.11-1.57-7.35-2-10-3.17,7.55-8.17,19.06-10.85,25.5s-3.08,7.85-3.17,9.58.09,3.9,1.43,9.23,3.86,13.82,7.5,23.92c4.68,13,12.64,34.81,22.46,49.43" transform="translate(-59.95 -62.7)"/><path class="64bd4bdd-70cc-446c-a2c6-d6c0c68d4d15" d="M178.45,203.08c-4.93-8.85-15.1-17.43-31.35-24.49,15.41,5.06,27.08,13.35,33.21,22.92,10.28-8.51,21.41-17,26.74-29.68.37-.88.63-1.6.86-2.23-5.36-11.32-15.85-21.22-31.41-26.8,14.84,3.9,26.6,12.4,33.11,23.79l.17-.17c11.9-12.27,16.25-14.14,23-31.94q.23-.6.42-1.08c-7.09-13-20.6-21.46-37-28,17,4.76,30.63,13.5,38.48,25.14.36-.57.81-1.22,1.39-2.06,6.38-9.21,12.08-19.19,12.48-30.7a24.63,24.63,0,0,0-.13-3.51C234.8,80.08,212.83,72.63,191.1,73.63c-22.54,1-40.85,10.77-57,26-24.56,23.26-38.8,58.47-41,91.83-.09,1.4-.16,2.83-.22,4.29a8.52,8.52,0,0,1,.71-2.28c2.76-5.78,8.22-5.62,13.55-3.61,4.39,1.67,10.21,5.09,17.88,9.53s17.2,9.89,25.11,12.11c8.44,2.37,18.77,2,24.91-5a34.22,34.22,0,0,1,3.39-3.46" transform="translate(-59.95 -62.7)"/><path class="df8c076b-4970-4819-9f43-2fe5fcab0ae2" d="M227.46,183.3a24.54,24.54,0,0,0-2,12.37c.86,9.19,6.5,19.41,15.31,23.05a25.23,25.23,0,0,0,14.68,1.14c12.2-2.43,22.89-11.42,29.79-21.47,7.14-10.39,8.22-23.73.89-34.4a23.2,23.2,0,0,0-18.43-10.18A29,29,0,0,0,254.88,156c-10.55,4.43-22.69,16.6-27.42,27.3" transform="translate(-59.95 -62.7)"/><path class="64bd4bdd-70cc-446c-a2c6-d6c0c68d4d15" d="M291.13,179a28.16,28.16,0,0,0-5-15,23.2,23.2,0,0,0-18.43-10.18A29,29,0,0,0,254.88,156c-8.55,3.59-18.14,12.26-24,21.12l0,.08c-.18.26-.35.53-.52.79a19,19,0,0,0-2.76,9.48c-.25,15.1,14.21,25.37,29.05,22.46,12.2-2.38,22.88-11.22,29.79-21.11a33.35,33.35,0,0,0,4.73-9.85" transform="translate(-59.95 -62.7)"/><path class="03ee5f36-7b5c-4078-89b6-9faa86a86168" d="M229.41,368.19c24.55-1.26,40.57-9.74,44.87-29.48,5.66,9.34,13.61,17.09,21.36,23.83.79.68,3.27,2.9,5.34,4.76,4.42,4,6.39,10,8.83,15.3L306.37,372c3.62,2.76,7.48,4.74,13.91,6.22,19.23,4.43,23.56,1.53,33.08,18.59,5.65,10.13,12.85,25.31,20,40.2-7.32-4.5-14.5-12.59-21.55-24a77.71,77.71,0,0,0,15.79,22.75c-24.87-6.47-51-2.27-70.55,16.54-1.13-6.58-2.43-13.21-5.8-20.52-2.73-5.94-2.6-5.12-7.17-9.3a74,74,0,0,1-10-11.4,28.12,28.12,0,0,0-4.39-5.12l-40.25-37.7" transform="translate(-59.95 -62.7)"/><path class="b52b92fb-2d2a-4a0e-8f68-d798ce7c0c4d" d="M362,429.41c1.71,2.1,3.57,4.2,5.59,6.28-24.87-6.47-51-2.27-70.55,16.54-.3-1.76-.62-3.52-1-5.3,7.71-6.87,14.27-10.73,18-15.32,4.44-5.46,4-15.4,2.9-22.08,10.17,8,24.7,14.71,45,19.88ZM270.4,349.09a36.36,36.36,0,0,0,3.88-10.38c5.66,9.34,13.61,17.09,21.36,23.83.79.68,3.27,2.9,5.34,4.76a21.83,21.83,0,0,1,4.28,5.51c-4.94-3.8-11.84-5.62-16.84-7.44C281.79,363,275.33,355,270.4,349.09Z" transform="translate(-59.95 -62.7)"/><path class="b52b92fb-2d2a-4a0e-8f68-d798ce7c0c4d" d="M442,143.35c8.07,5.34,12.43,10,16.46,18.79,1.46,3.2,2.7,6.58,3.66,9.34.33,1.25.64,2.48.91,3.75.32,1.42.59,2.87.8,4.41a35.25,35.25,0,0,1-.19,11.18c-.36,2.14-.93,4.51-1.59,6.94-.81,2.93-1.77,6-2.72,8.74-.86,2.52-1.7,4.82-2.55,6.83a33.37,33.37,0,0,1-2.62,5.1,12.53,12.53,0,0,1-2.8,3.18,8.35,8.35,0,0,1-3.11,1.52,9.8,9.8,0,0,1-3.83.13,28.81,28.81,0,0,1-5.64-1.51c-2.31-.82-5.11-2-8.36-3.44s-7-3.25-11.1-5.31-8.87-4.52-13.24-6.85c-4.19-2.23-8.12-4.39-11.15-6.15s-5.16-3.12-6.77-4.29a31.75,31.75,0,0,1-3.81-3.22,36.08,36.08,0,0,1-3.17-3.51,27.35,27.35,0,0,1-2.78-4.25,35.27,35.27,0,0,1-2.28-5.49c-.71-2.16-1.4-4.72-2.14-7.88s-1.52-6.88-2.24-10.57-1.41-7.54-1.87-10.52-.72-5.21-.84-7.07a27.61,27.61,0,0,1,.06-4.62,17.14,17.14,0,0,1,.77-3.72,11.86,11.86,0,0,1,1.63-3.21,14.82,14.82,0,0,1,2.8-2.88,28,28,0,0,1,4.25-2.72,57.17,57.17,0,0,1,5.48-2.55c2-.83,4.09-1.56,5.93-2.12a24.12,24.12,0,0,1,4.87-1,16.35,16.35,0,0,1,4.81.32,32.84,32.84,0,0,1,6.13,2.06c2.43,1,5.27,2.45,8.74,4.35s7.58,4.27,12,6.9c5.11,3,10.56,6.12,15.47,9.36" transform="translate(-59.95 -62.7)"/><path class="03ee5f36-7b5c-4078-89b6-9faa86a86168" d="M463.68,190.82c-.36,2.14-.93,4.51-1.59,6.94-.81,2.93-1.77,6-2.72,8.74-.86,2.52-1.7,4.82-2.55,6.83a33.37,33.37,0,0,1-2.62,5.1,12.53,12.53,0,0,1-2.8,3.18,8.35,8.35,0,0,1-3.11,1.52,9.8,9.8,0,0,1-3.83.13,28.81,28.81,0,0,1-5.64-1.51c-2.31-.82-5.11-2-8.36-3.44s-7-3.25-11.1-5.31-8.87-4.52-13.24-6.85c-4.19-2.23-8.12-4.39-11.15-6.15s-5.16-3.12-6.77-4.29a31.75,31.75,0,0,1-3.81-3.22,36.08,36.08,0,0,1-3.17-3.51,27.35,27.35,0,0,1-2.78-4.25,35.27,35.27,0,0,1-2.28-5.49c-.71-2.16-1.4-4.72-2.14-7.88-.06-.27-.12-.54-.19-.81l19.77-16.39c4.08,10.36,8.9,14.67,18,20.3A343.86,343.86,0,0,0,450,194.62c5.34,2.45,12.35,2.32,13.72-3.8" transform="translate(-59.95 -62.7)"/><path class="c6f347e1-cba9-4642-a43f-a16652076341" d="M377.92,183.7a38.44,38.44,0,0,1-1.76-4.46c-.71-2.16-1.4-4.72-2.14-7.88-.06-.27-.12-.54-.19-.81l19.77-16.39A37.78,37.78,0,0,0,399.78,165h0Z" transform="translate(-59.95 -62.7)"/><path class="b52b92fb-2d2a-4a0e-8f68-d798ce7c0c4d" d="M269.61,106.49c8.83-7,21.21-14.28,32.39-18.13,19.1-6.58,38.7-8.51,58.59-4.41,9.12,1.88,16.16,5.31,26.14,10.32s22.76,12.41,31.81,18.09,14.52,9.84,17.39,12.45c3.94,3.6,3.7,8.68,3.7,13.65v1.63a2.26,2.26,0,0,1-.05.31c-4.22-2.54-8.41-5.06-12.41-7.42-4.43-2.62-8.55-5-12.07-6.93s-6.39-3.35-8.84-4.4a34.06,34.06,0,0,0-6.35-2.12,17.29,17.29,0,0,0-5.14-.35,25.24,25.24,0,0,0-5.11,1.07c-1.86.56-4,1.31-6,2.16A61.09,61.09,0,0,0,378,125a34,34,0,0,0-3.33,2,107.85,107.85,0,0,1-16.05-10.76,91,91,0,0,0-9.87-7.24,55.53,55.53,0,0,0-9.56-4.8c-8.53-3.27-19-4.66-29.57-4.52A104.87,104.87,0,0,0,277.46,105c-2.42.85-4.8,1.81-7.16,2.83-1.64.71-1.95-.37-.69-1.37" transform="translate(-59.95 -62.7)"/><path class="c6f347e1-cba9-4642-a43f-a16652076341" d="M438.38,128.21c1.37,3.09,1.25,6.7,1.25,10.25v1.63a2.26,2.26,0,0,1-.05.31c-4.22-2.54-8.41-5.06-12.41-7.42-4.43-2.62-8.55-5-12.07-6.93s-6.39-3.35-8.84-4.4a34.06,34.06,0,0,0-6.35-2.12,17.29,17.29,0,0,0-5.14-.35,25.24,25.24,0,0,0-5.11,1.07c-1.86.56-4,1.31-6,2.16A61.09,61.09,0,0,0,378,125a34,34,0,0,0-3.33,2,114.8,114.8,0,0,1-14.06-9.16l12.58-25Z" transform="translate(-59.95 -62.7)"/><path class="03ee5f36-7b5c-4078-89b6-9faa86a86168" d="M438.38,128.21c1.37,3.09,1.25,6.7,1.25,10.25v1.63a2.26,2.26,0,0,1-.05.31c-4.22-2.54-8.41-5.06-12.41-7.42-4.43-2.62-8.55-5-12.07-6.93s-6.39-3.35-8.84-4.4a34.06,34.06,0,0,0-6.35-2.12,17.29,17.29,0,0,0-5.14-.35,25.24,25.24,0,0,0-5.11,1.07c-1.86.56-4,1.31-6,2.16A61.09,61.09,0,0,0,378,125a34,34,0,0,0-3.33,2c-1.49-.84-3-1.69-4.42-2.58l13.25-26Z" transform="translate(-59.95 -62.7)"/><path class="60c5922b-775b-48f2-9f6f-c3d9a10c8a66" d="M406.13,365.61c-15.61,5.92-34.14,8.53-51.48,8.39-33.8-.27-57-9.39-76.72-37.09l-.69-1a59.68,59.68,0,0,0-.51-16.25c-3.25-20.69-9.3-40.93-14.68-61.26-1.77-6.69-3-19.05-3.29-24.93a101.43,101.43,0,0,1,10.85-14.33,63.5,63.5,0,0,0,11.9-8.67,58.07,58.07,0,0,0,6.11-6.6c17.41-11,38.21-14.35,58.26-2.41,17.72,10.55,36.54,32.91,55.83,60.33,18.57-5.36,35.18-8.64,43.34-8,3,.26,4.58,1,5.61,2.52,1.92,2.73,3.67,11.21,4.12,14.58,1.87,14-2.36,24.14-6.4,32.3-4.27,8.65-7.06,14.74-8.83,24.36-1,5.39-1.72,10.69-4,15.75-5,11.3-18.4,18.07-29.45,22.26" transform="translate(-59.95 -62.7)"/><path class="9a9892a9-b99d-427e-a3b7-125fb53c7027" d="M406.13,365.61c-15.61,5.92-34.14,8.53-51.48,8.39-33.8-.27-57-9.39-76.72-37.09l-.69-1a59.68,59.68,0,0,0-.51-16.25c-3.25-20.69-9.3-40.93-14.68-61.26a123.82,123.82,0,0,1-2.68-17c10.54-15,31.4-33.47,47.87-36.7a50.52,50.52,0,0,1,36.42,6.55c17.72,10.55,36.54,32.91,55.83,60.33,18.57-5.36,35.18-8.64,43.34-7.95,3,.25,4.58,1.05,5.62,2.52,1.91,2.72,3.66,11.2,4.11,14.57a48.83,48.83,0,0,1,.11,12.41h0a76.94,76.94,0,0,1-4.29,10.13c-4.27,8.65-7.06,14.74-8.83,24.36-1,5.39-1.72,10.69-4,15.75-5,11.3-18.4,18.07-29.45,22.26" transform="translate(-59.95 -62.7)"/><path class="5bfd9667-092e-4e8e-95f3-fdad7c83d352" d="M437.33,338.42a35.35,35.35,0,0,1-1.75,4.93c-.29.65-.6,1.29-.95,1.91-22.12-4.57-31.65-13.75-39.83-23.43-28.4,9.33-74.48,9.12-97.1-5.17-10-6.33-4.51-16.77,1.08-13.06,2.65,1.76,3.62,3.79,7.68,6,22.5,12.4,52.87,12.78,89.18,4.08A3.19,3.19,0,0,1,399,315c9,12.59,21.23,21.06,38.29,23.44" transform="translate(-59.95 -62.7)"/><path class="64bd4bdd-70cc-446c-a2c6-d6c0c68d4d15" d="M267.13,110.57l1.56-.71c3-1.37,6.08-2.64,9.16-3.72a103.72,103.72,0,0,1,31.81-5.25c10.41-.14,20.74,1.22,29.13,4.44a53.94,53.94,0,0,1,9.36,4.7,89.67,89.67,0,0,1,9.74,7.15,108.06,108.06,0,0,0,15.77,10.62l-.06,0a15.74,15.74,0,0,0-3,3.11,13.08,13.08,0,0,0-1.8,3.53,19,19,0,0,0-.82,4,28.85,28.85,0,0,0-.06,4.81c.11,1.88.38,4.17.85,7.18s1.14,6.79,1.87,10.56,1.52,7.47,2.25,10.61,1.45,5.8,2.17,8a36,36,0,0,0,2.36,5.67,29.44,29.44,0,0,0,2.89,4.43,38.33,38.33,0,0,0,3.28,3.62,33.14,33.14,0,0,0,3.94,3.33,80.91,80.91,0,0,0,6.87,4.36c3,1.74,7,3.92,11.19,6.17s9,4.75,13.27,6.86,7.89,3.87,11.14,5.33,6.1,2.65,8.45,3.48a30.28,30.28,0,0,0,5.87,1.57,10.86,10.86,0,0,0,4.27-.16,9.35,9.35,0,0,0,3.56-1.73,13.92,13.92,0,0,0,3.06-3.47,35,35,0,0,0,2.71-5.29c.87-2.05,1.72-4.37,2.59-6.91.94-2.76,1.91-5.81,2.73-8.8.68-2.47,1.25-4.89,1.62-7a36.28,36.28,0,0,0,.19-11.53,13.4,13.4,0,0,1,1,1.66,108.24,108.24,0,0,1,9.48,24.47c7.16,28.36,6.34,57-2.3,83.51-.57-17.74-2.3-41.23-25.48-39.94-10.48.58-26.72,4.84-45.12,10.48-17.72-26.08-35.64-49.5-54.36-61.21-16.66-10.42-38.16-11.13-55.71-2.4h0c5.42-11.21,5.18-24.3-2.16-35A28.38,28.38,0,0,0,268,148.66a33.79,33.79,0,0,0-4.5,0,57.22,57.22,0,0,0,2-34.59,3,3,0,0,1,1.67-3.54" transform="translate(-59.95 -62.7)"/><path class="df8c076b-4970-4819-9f43-2fe5fcab0ae2" d="M379.32,188.41c.32.45.64.88,1,1.3a38.33,38.33,0,0,0,3.28,3.62,33.14,33.14,0,0,0,3.94,3.33,80.91,80.91,0,0,0,6.87,4.36c3,1.74,7,3.92,11.19,6.17s9,4.75,13.27,6.86,7.89,3.87,11.14,5.33,6.1,2.65,8.45,3.48a30.28,30.28,0,0,0,5.87,1.57,10.86,10.86,0,0,0,4.27-.16,9.35,9.35,0,0,0,3.56-1.73,13.92,13.92,0,0,0,3.06-3.47,35,35,0,0,0,2.71-5.29c.87-2.05,1.72-4.37,2.59-6.91.94-2.76,1.91-5.81,2.73-8.8.68-2.47,1.25-4.89,1.62-7a36.28,36.28,0,0,0,.19-11.53,13.4,13.4,0,0,1,1,1.66,108.24,108.24,0,0,1,9.48,24.47c7.16,28.36,6.34,57-2.3,83.51-.46-14.09-1.64-31.79-13.71-37.85h0a65.36,65.36,0,0,0,8.06-25.05c-6.83,13-15,20.54-31.88,12.88-10.54-4.77-24-15.47-33.16-23.09-10.92-9.08-19.4-18.26-23.22-27.61" transform="translate(-59.95 -62.7)"/><path class="03ee5f36-7b5c-4078-89b6-9faa86a86168" d="M469.07,288.21c-4.85,25.17-13.79,42.94-27.95,51.25,1.65-5.61,3.34-11.2,3.82-17.64,9-10.63,16.39-22.23,24.13-33.61" transform="translate(-59.95 -62.7)"/><path class="b52b92fb-2d2a-4a0e-8f68-d798ce7c0c4d" d="M463.1,310.08a69.61,69.61,0,0,1-10.6,19.38l-8.14-2.89h0c.26-1.54.46-3.11.58-4.75,5-5.92,9.53-12.15,13.88-18.47Z" transform="translate(-59.95 -62.7)"/><path class="9c0af4e9-3d4d-4511-b56a-47f003f9bf86" d="M305.86,110.18c9.79,0,17.73,7.23,17.73,16.16s-7.94,16.17-17.73,16.17-17.74-7.24-17.74-16.17,7.94-16.16,17.74-16.16" transform="translate(-59.95 -62.7)"/><path class="5bfd9667-092e-4e8e-95f3-fdad7c83d352" d="M326.56,249.29c5.76,0,10.42,4.39,10.42,9.79s-4.66,9.79-10.42,9.79-10.41-4.38-10.41-9.79,4.66-9.79,10.41-9.79" transform="translate(-59.95 -62.7)"/><path class="5bfd9667-092e-4e8e-95f3-fdad7c83d352" d="M436.27,276c5.46,0,9.88,4.16,9.88,9.29s-4.42,9.29-9.88,9.29-9.87-4.16-9.87-9.29,4.42-9.29,9.87-9.29" transform="translate(-59.95 -62.7)"/><path class="5bfd9667-092e-4e8e-95f3-fdad7c83d352" d="M395.37,276.43c8.81,1.9,15,7.51,13.81,12.53s-9.28,7.56-18.09,5.66-15-7.51-13.81-12.53,9.28-7.56,18.09-5.66" transform="translate(-59.95 -62.7)"/><path class="e817b7ac-dd6d-4cde-b72e-26899324ab19" d="M75.88,239.24H88.32c6.13,14.77,18.21,33.69,27.51,47.28-22.79-6-44.65-21-41.41-46a1.46,1.46,0,0,1,1.46-1.29" transform="translate(-59.95 -62.7)"/><path class="e817b7ac-dd6d-4cde-b72e-26899324ab19" d="M484,286.59l33.06,20.75c-9,6.46-23,6.84-40.77,2.58,3-7.76,5.22-15.2,7.53-23.36Z" transform="translate(-59.95 -62.7)"/><path class="2c3da713-a9f8-4b1b-bd4a-f8b5502b82af" d="M429.64,145.49c-4.38-2.48-8.43-3.24-11.33-2.28s-4.59,3.62-4.62,7.54a22.21,22.21,0,0,0,4.08,12,23.82,23.82,0,0,0,9.68,8.46,14.21,14.21,0,0,0,10.31.93,7.89,7.89,0,0,0,5.63-6.19c.58-3.17-.62-7-3.08-10.64a32.36,32.36,0,0,0-10.67-9.83m-14.45,6a8.24,8.24,0,0,1,1.25-4.53q1.53,4.95,3,9.79c.94,3.18,1.84,6.33,2.73,9.44a24.19,24.19,0,0,1-5-6.91A17.69,17.69,0,0,1,415.19,151.52Zm12.36,18.41a19.69,19.69,0,0,1-3.51-2.11q1.11-2.15,2.27-4.23c.77-1.39,1.57-2.75,2.37-4.1q.81,2.94,1.57,5.82t1.47,5.69a1.59,1.59,0,0,0,.07.2A15.3,15.3,0,0,1,427.55,169.93Zm3.34-16c.83.4,1.58.73,1.58.73.75.33.76-.61,0-1,0,0-2.24-1-3.69-1.83s-3.62-2.12-3.62-2.12c-.75-.44-.89.5-.15.93,0,0,.69.45,1.43.89q.89,3.08,1.73,6.1c-.59,1-1.18,2.06-1.75,3.09s-1.14,2.11-1.69,3.17c-.65-2.52-1.31-5.07-2-7.64s-1.42-5.22-2.16-7.86c.83.4,1.58.73,1.58.73.75.32.71-.69,0-1,0,0-2.24-1.05-3.68-1.83-.26-.14-.57-.31-.89-.5a7.13,7.13,0,0,1,5.07-1.32,17.22,17.22,0,0,1,6.91,2.33,29,29,0,0,1,5.12,3.71,27.69,27.69,0,0,1,4,4.5,1.08,1.08,0,0,0-.18-.11c-1.37-.75-2.46-.35-2.58.66a7.13,7.13,0,0,0,1,3.3,6.79,6.79,0,0,1,.7,3.58,8.51,8.51,0,0,1-1.5,3c-.6,1-1.19,2-1.77,3q-.8-3.54-1.66-7.14C432.13,158.88,431.51,156.42,430.89,154Zm10.18,5.32a11.17,11.17,0,0,1,.82,5.92,6.8,6.8,0,0,1-2.69,4.43,9,9,0,0,1-5.15,1.7c.85-1.31,1.71-2.62,2.6-3.89s1.79-2.51,2.71-3.75a6.25,6.25,0,0,0,1.62-3.27A6.4,6.4,0,0,0,441.07,159.27Z" transform="translate(-59.95 -62.7)"/></svg>